<?xml version="1.0" encoding="UTF-8" standalone="no"?>
<!-- Created with Inkscape (http://www.inkscape.org/) -->

<svg
   width="350.82147"
   height="469.06491"
   viewBox="0 0 92.82151 124.10676"
   version="1.1"
   id="svg5"
   xmlns="http://www.w3.org/2000/svg"
   xmlns:svg="http://www.w3.org/2000/svg">
  <defs
     id="defs2" />
  <path
     d="M 0,124.10676 V 0 h 51.280229 q 1.809879,0 4.654001,0.1723167 2.844106,0.086321 5.257307,0.5171132 10.773152,1.6375141 17.754147,7.1533771 7.067203,5.515862 10.428423,13.962005 3.44741,8.359969 3.44741,18.616025 0,10.169848 -3.44741,18.616007 -3.44741,8.359969 -10.514598,13.875832 -6.981011,5.515846 -17.667972,7.153376 -2.413201,0.344797 -5.343497,0.517114 -2.844106,0.172316 -4.567811,0.172316 H 20.770651 V 124.10667 Z M 20.770651,61.363902 h 29.647717 q 1.723705,0 3.878348,-0.172316 2.154628,-0.172317 3.964507,-0.68943 5.171115,-1.292864 8.101429,-4.567811 3.016471,-3.275045 4.223063,-7.411933 1.292702,-4.136889 1.292702,-8.101413 0,-3.964523 -1.292702,-8.101412 -1.206543,-4.223079 -4.223063,-7.498124 -2.930314,-3.275044 -8.101429,-4.567811 -1.809879,-0.517113 -3.964507,-0.603271 -2.154643,-0.172317 -3.878348,-0.172317 H 20.770651 Z"
     fill="#23262f"
     id="path4530" />
</svg>
