<?xml version="1.0" standalone="no"?>
<!DOCTYPE svg PUBLIC "-//W3C//DTD SVG 20010904//EN"
 "http://www.w3.org/TR/2001/REC-SVG-20010904/DTD/svg10.dtd">
<svg version="1.0" xmlns="http://www.w3.org/2000/svg"
 width="938.000000pt" height="938.000000pt" viewBox="0 0 938.000000 938.000000"
 preserveAspectRatio="xMidYMid meet">
<metadata>
Created by potrace 1.14, written by Peter Selinger 2001-2017
</metadata>
<g transform="translate(0.000000,938.000000) scale(0.100000,-0.100000)"
fill="#000000" stroke="none">
<path d="M1180 4690 l0 -4690 785 0 785 0 0 1635 c0 1301 3 1635 13 1636 6 1
554 3 1217 5 1109 2 1337 5 1505 19 33 3 86 7 117 10 31 2 75 6 97 9 23 3 60
8 84 11 23 3 89 15 147 25 142 27 139 26 190 40 25 7 52 14 60 15 8 2 30 8 48
14 18 5 33 10 35 10 19 0 296 100 365 132 46 22 85 39 87 39 2 0 27 13 55 30
27 16 50 27 50 24 0 -4 15 5 34 20 19 14 38 26 42 26 7 0 159 100 194 127 74
59 141 113 170 138 63 55 225 220 265 270 22 28 43 52 46 55 3 3 25 32 50 65
24 33 47 62 52 63 4 2 7 8 7 13 0 11 40 70 55 81 6 4 6 8 1 8 -5 0 0 10 11 22
11 13 24 33 28 46 3 12 11 22 16 22 5 0 9 9 9 19 0 11 4 21 8 23 15 6 153 301
167 358 2 8 17 51 33 95 15 44 29 83 30 87 2 4 4 13 7 20 12 39 35 128 40 157
3 19 8 38 11 43 3 4 7 18 9 30 3 13 9 43 14 68 6 25 12 59 15 75 2 17 9 58 15
93 7 34 9 67 6 72 -3 6 -2 10 2 10 5 0 9 8 10 18 0 9 3 44 7 77 17 166 21 240
20 475 0 230 -6 371 -18 455 -7 42 -17 123 -21 168 -2 21 -7 46 -10 56 -3 10
-8 36 -11 57 -2 22 -7 47 -10 56 -3 10 -7 30 -10 45 -3 16 -12 55 -21 88 -8
33 -17 69 -20 80 -2 11 -5 25 -7 30 -2 6 -6 24 -11 40 -4 17 -12 36 -18 43 -5
6 -7 12 -3 12 3 0 -8 39 -25 88 -36 102 -39 110 -38 118 0 4 -3 10 -8 13 -4 3
-14 24 -22 46 -35 102 -201 425 -223 433 -4 2 -8 8 -8 14 0 11 -42 73 -111
163 -17 22 -45 58 -62 80 -48 60 -244 255 -312 311 -33 27 -62 51 -65 54 -24
24 -238 170 -250 170 -4 0 -10 3 -12 8 -1 4 -23 18 -48 31 -63 33 -164 85
-170 86 -3 1 -27 12 -55 24 -108 51 -426 157 -505 168 -14 2 -32 6 -40 10 -15
6 -72 15 -102 16 -10 1 -18 4 -18 7 0 3 -8 6 -18 7 -10 1 -45 6 -78 12 -32 6
-77 13 -99 16 -22 2 -49 7 -60 9 -20 4 -136 15 -255 24 -36 2 -1011 6 -2167 9
l-2103 4 0 -4691z m4120 3206 c102 -8 201 -24 290 -48 41 -11 79 -21 85 -23
17 -3 49 -16 67 -26 10 -5 23 -9 29 -9 18 0 219 -103 219 -112 0 -4 7 -8 15
-8 8 0 15 -4 15 -10 0 -5 4 -10 10 -10 22 0 182 -153 240 -230 19 -25 37 -47
41 -50 14 -12 101 -164 132 -232 55 -118 119 -332 141 -468 10 -63 14 -85 16
-85 4 0 13 -174 14 -255 0 -90 -9 -232 -18 -275 -2 -11 -7 -40 -11 -65 -12
-71 -12 -74 -44 -192 -51 -193 -109 -326 -199 -463 -26 -38 -49 -72 -52 -75
-3 -3 -21 -25 -41 -50 -40 -49 -90 -101 -135 -140 -60 -52 -112 -90 -123 -90
-6 0 -11 -4 -11 -10 0 -5 -5 -10 -11 -10 -6 0 -23 -8 -37 -18 -27 -18 -163
-82 -185 -86 -7 -2 -19 -5 -27 -9 -16 -5 -40 -13 -52 -16 -4 -1 -40 -11 -80
-22 -87 -25 -103 -29 -143 -34 -16 -3 -45 -7 -63 -10 -100 -16 -328 -19 -1422
-19 l-1205 -1 -3 1581 -2 1582 1237 -3 c681 -2 1272 -6 1313 -9z"/>
</g>
</svg>
