<svg width="269" height="300" viewBox="0 0 269 300" fill="none" xmlns="http://www.w3.org/2000/svg"><g opacity=".51" fill="#000"><path opacity=".51" d="M.29 242.22a.99.99 0 1 0 0-1.98.99.99 0 0 0 0 1.98ZM.29 265.07a.99.99 0 1 0 0-1.98.99.99 0 0 0 0 1.98ZM.29 287.91a.99.99 0 1 0-.001-1.981.99.99 0 0 0 0 1.981Z"/></g><g opacity=".51" fill="#000"><path opacity=".51" d="M215.86 1a.999.999 0 0 1-1.98.195 1.002 1.002 0 0 1 .425-1.026.999.999 0 0 1 1.555.831ZM230.8 1a.998.998 0 0 1-1 1 1.001 1.001 0 1 1 1-1ZM245.8 1a.999.999 0 0 1-1.98.195 1.002 1.002 0 0 1 .425-1.026A.999.999 0 0 1 245.8 1ZM260.73 1a.999.999 0 0 1-1.98.195.994.994 0 0 1 .425-1.026.999.999 0 0 1 1.555.831ZM222.35 13.38a.99.99 0 1 0 0-1.98.99.99 0 0 0 0 1.98ZM238.3 12.39a.998.998 0 0 1-1.98.195 1.002 1.002 0 0 1 .425-1.026.999.999 0 0 1 1.555.831ZM252.26 13.38a.99.99 0 1 0 0-1.981.99.99 0 0 0 0 1.98ZM267.22 13.38a.99.99 0 1 0 0-1.98.99.99 0 0 0 0 1.98ZM215.86 23.84a.998.998 0 0 1-1.98.195 1.002 1.002 0 0 1 .425-1.027.999.999 0 0 1 1.555.832ZM230.8 23.84a.998.998 0 0 1-1.98.195 1.002 1.002 0 0 1 .425-1.027.999.999 0 0 1 1.555.832ZM245.8 23.84a.998.998 0 0 1-1.98.195 1.002 1.002 0 0 1 .425-1.027.999.999 0 0 1 1.555.832ZM260.73 23.84a.998.998 0 0 1-1.98.195.994.994 0 0 1 .425-1.027.999.999 0 0 1 1.555.832ZM222.35 36.22a.99.99 0 1 0 0-1.98.99.99 0 0 0 0 1.98ZM238.3 35.23a.998.998 0 0 1-1 1 1.001 1.001 0 1 1 1-1ZM252.26 36.22a.99.99 0 1 0 0-1.981.99.99 0 0 0 0 1.981ZM267.22 36.22a.99.99 0 1 0 0-1.98.99.99 0 0 0 0 1.98ZM215.86 46.68a.998.998 0 0 1-1.707.707 1.002 1.002 0 0 1 .152-1.539.999.999 0 0 1 1.555.832ZM230.8 46.68a.998.998 0 0 1-1.707.707 1.002 1.002 0 0 1 .152-1.539.999.999 0 0 1 1.555.832ZM245.8 46.68a.998.998 0 0 1-1.707.707 1.002 1.002 0 0 1 0-1.414 1 1 0 0 1 1.707.707ZM260.73 46.68a.998.998 0 0 1-1.707.707 1.001 1.001 0 0 1 1.415-1.414c.187.188.292.442.292.707ZM222.35 59.07a.99.99 0 1 0 0-1.98.99.99 0 0 0 0 1.98ZM238.3 58.08a.999.999 0 0 1-1.98.195 1.002 1.002 0 0 1 .425-1.026.999.999 0 0 1 1.555.831ZM252.26 59.07a.99.99 0 1 0 0-1.982.99.99 0 0 0 0 1.982ZM267.22 59.07a.99.99 0 1 0 0-1.98.99.99 0 0 0 0 1.98Z"/></g><path d="M109.8 106.02H56.88V53.1h52.92v52.92Zm-44.78-8.14h36.64V61.24H65.02v36.64Z" stroke="#000" stroke-width=".25" stroke-miterlimit="10"/><path d="M154.33 132.78c7.51-3.24 10.68 4.09 18.19.85 7.51-3.24 4.35-10.57 11.86-13.81s10.67 4.08 18.18.84 4.35-10.57 11.87-13.82 10.67 4.09 18.18.85" stroke="#000" stroke-width=".17" stroke-miterlimit="10"/><path d="m59.18 165.77 4.77 2.75v-5.51l-4.77 2.76ZM77.61 165.77l-4.77-2.76v5.51l4.77-2.75ZM68.4 174.98l2.75-4.77h-5.51l2.76 4.77ZM68.4 156.55l-2.76 4.77h5.51l-2.75-4.77Z" fill="#F2C94C"/><path d="m158.46 23.72 4.77 2.76v-5.51l-4.77 2.75ZM176.89 23.72l-4.77-2.75v5.51l4.77-2.76ZM167.67 32.94l2.76-4.77h-5.51l2.75 4.77ZM167.67 14.51l-2.75 4.77h5.51l-2.76-4.77Z" fill="#000"/></svg>