<svg width="429" height="444" viewBox="0 0 429 444" fill="none" xmlns="http://www.w3.org/2000/svg"><g clip-path="url(#a)"><path d="M395.74 88.35a13.28 13.28 0 0 0 7.91-12.29c0-7.34-5.52-13.31-12.4-13.35-6.88-.04-12.48 5.9-12.51 13.23a13.269 13.269 0 0 0 7.94 12.41c-19.17 2.89-18.3 23.72-18.3 23.72l45.33.21s1.03-21.06-17.97-23.93ZM127.89 10.48 98.26 0 68.92 10.34c-3.74 1.74-7 2.78-7 6.22v17.1a63.87 63.87 0 0 0 9.67 34.05 59.83 59.83 0 0 0 27 23.48c12-3.84 20.94-14.07 26.42-22.81a64.002 64.002 0 0 0 9.66-34V19c-.04-4.95-2.67-7.34-6.78-8.52Z" fill="#F5F5F5"/><path d="M108.1 38.09a8.204 8.204 0 0 0-4.56-7.326A8.2 8.2 0 1 0 97.66 46v12.21h4.48V46a8.188 8.188 0 0 0 5.96-7.91Z" fill="#EBEBEB"/><path d="m379.81 169.05 5.05 2.74-2.27 3.8-5.1-3 .09 5.61h-4.35v-5.65l-5.1 3.06-2.22-3.8 5.05-2.74-4.96-2.8 2.22-3.8 5.1 3.06v-5.66h4.35l-.09 5.66 5.1-3.06 2.27 3.8-5.14 2.78ZM400.85 169.05l5 2.74-2.27 3.8-5.1-3 .1 5.61h-4.36v-5.65l-5.09 3.06-2.23-3.8 5.05-2.74-4.95-2.8 2.23-3.8 5.09 3.06v-5.66h4.36l-.1 5.66 5.1-3.06 2.27 3.8-5.1 2.78ZM421.89 169.05l5.06 2.74-2.27 3.8-5.1-3 .09 5.61h-4.36l.05-5.65-5.1 3.06-2.23-3.8 5.06-2.74-5.09-2.8 2.23-3.8 5.1 3.06-.05-5.66h4.36l-.09 5.66 5.1-3.06 2.27 3.8-5.03 2.78Z" fill="#E0E0E0"/><path d="M207.8 408.41v31.06h95.53v-31.06H207.8Z" fill="#F5F5F5"/><path d="M203.8 399.73v8.68h102.87v-8.68H203.8Z" fill="#EBEBEB"/><path d="M255.23 439.47h48.1v-31.06h3.34v-8.68h-53.44v7.88l2 31.86Z" fill="#EBEBEB"/><path d="M240.53 413.42h-19.37v4.68h19.37v-4.68Z" fill="#E0E0E0"/><path d="M243.55 423.94h-24.88v9.87h24.88v-9.87Z" fill="#fff"/><path d="M222.5 368.71v31.06h95.53v-31.06H222.5Z" fill="#F5F5F5"/><path d="M218.49 360.02v8.69h102.88v-8.69H218.49Z" fill="#EBEBEB"/><path d="M269.93 399.77h48.1v-31.06h3.34v-8.69h-53.44v7.88l2 31.87Z" fill="#EBEBEB"/><path d="M255.23 373.72h-19.37v4.68h19.37v-4.68Z" fill="#E0E0E0"/><path d="M258.25 384.24h-24.88v9.87h24.88v-9.87Z" fill="#fff"/><path d="M428.14 439.71c0 .15-95.85.26-214.06.26-118.21 0-214.08-.11-214.08-.26 0-.15 95.83-.26 214.08-.26 118.25 0 214.06.12 214.06.26Z" fill="#263238"/><path d="M339.78 18.84H161.14a6.56 6.56 0 0 0-6.56 6.56v164.35a6.56 6.56 0 0 0 6.56 6.56h178.64a6.56 6.56 0 0 0 6.56-6.56V25.4a6.56 6.56 0 0 0-6.56-6.56Z" fill="#fff"/><path d="M339.78 196.31h.47c.464-.043.922-.13 1.37-.26a6.798 6.798 0 0 0 2-1 6.414 6.414 0 0 0 2-2.43 7.944 7.944 0 0 0 .62-3.94V171.55c0-18.4-.05-45-.09-77.92V25.08a6.313 6.313 0 0 0-4.1-5.53 9.61 9.61 0 0 0-3.69-.41h-177.2a6.39 6.39 0 0 0-4.16 1.51 6.18 6.18 0 0 0-2.11 3.86 19.193 19.193 0 0 0-.07 2.3v163.51c.056.617.201 1.224.43 1.8a6.393 6.393 0 0 0 2.27 2.84 6.316 6.316 0 0 0 3.43 1.12H233.27l77.92.08H339.76h-28.57l-77.92.09H161a6.767 6.767 0 0 1-6.11-4.24 7.06 7.06 0 0 1-.47-1.93V26.81c-.028-.79-.001-1.583.08-2.37a6.707 6.707 0 0 1 2.28-4.19 6.86 6.86 0 0 1 4.48-1.67H338.4a9.939 9.939 0 0 1 3.85.43 6.8 6.8 0 0 1 4.29 5.99V93.57c0 32.89-.06 59.52-.08 77.92V188.62a7.898 7.898 0 0 1-.66 4 6.52 6.52 0 0 1-2 2.46 6.77 6.77 0 0 1-2.07 1 6.49 6.49 0 0 1-1.39.23h-.56Z" fill="#263238"/><path d="M169.05 31.14a3.32 3.32 0 1 1-6.64.021 3.32 3.32 0 0 1 6.64-.02ZM175.42 34.45a3.31 3.31 0 1 0 0-6.62 3.31 3.31 0 0 0 0 6.62ZM185.1 34.45a3.31 3.31 0 1 0 0-6.62 3.31 3.31 0 0 0 0 6.62ZM346.34 40.55c0 .14-42.93.26-95.88.26-52.95 0-95.88-.12-95.88-.26s42.92-.26 95.88-.26c52.96 0 95.88.11 95.88.26Z" fill="#263238"/><path d="m277.55 107.4.22-.31.13-.17c.051-.068.095-.142.13-.22.118-.184.219-.378.3-.58 0-.12.1-.24.14-.37l.12-.42c.043-.154.073-.311.09-.47.038-.168.065-.339.08-.51a9.846 9.846 0 0 0-.12-2.49 22.322 22.322 0 0 0-2.28-6.43 50.163 50.163 0 0 0-4.91-7.63 78.035 78.035 0 0 0-7.31-8.22 89.834 89.834 0 0 0-9.61-8.2 67.782 67.782 0 0 0-5.68-3.8 55.18 55.18 0 0 0-6.3-3.3 28.821 28.821 0 0 0-7-2.2 12.672 12.672 0 0 0-3.74-.1 7.236 7.236 0 0 0-1.81.53 4.998 4.998 0 0 0-1.51 1.11 5.024 5.024 0 0 0-.94 1.63 6.91 6.91 0 0 0-.31 1.86 12.52 12.52 0 0 0 .51 3.7 29.528 29.528 0 0 0 3 6.73 53.82 53.82 0 0 0 4 5.89 78.61 78.61 0 0 0 4.42 5.21 88.981 88.981 0 0 0 9.24 8.61 77.895 77.895 0 0 0 9 6.33 50.135 50.135 0 0 0 8.13 4 22.288 22.288 0 0 0 6.66 1.54 9.597 9.597 0 0 0 2.48-.17c.17-.032.337-.075.5-.13a2.25 2.25 0 0 0 .46-.15l.4-.16c.13-.06.24-.13.35-.19.19-.1.371-.218.54-.35l.21-.16.16-.15.28-.26-.27.28-.16.15-.2.16a3.274 3.274 0 0 1-.55.36l-.34.19-.41.17a2.81 2.81 0 0 1-.46.15c-.163.055-.33.098-.5.13a9.667 9.667 0 0 1-2.5.19 22.245 22.245 0 0 1-6.67-1.52 49.962 49.962 0 0 1-8.17-4 77.736 77.736 0 0 1-9-6.33 90.212 90.212 0 0 1-9.35-8.6 76.749 76.749 0 0 1-4.43-5.22 54.735 54.735 0 0 1-4-5.9 29.652 29.652 0 0 1-3-6.76 12.46 12.46 0 0 1-.52-3.75c.022-.645.13-1.284.32-1.9a4.733 4.733 0 0 1 2.53-2.83 7.523 7.523 0 0 1 1.85-.53c1.258-.16 2.532-.13 3.78.09a29.918 29.918 0 0 1 7.06 2.21c2.176.97 4.287 2.079 6.32 3.32 2 1.21 3.89 2.49 5.68 3.81a88.987 88.987 0 0 1 9.61 8.22 77.933 77.933 0 0 1 7.31 8.24 49.932 49.932 0 0 1 4.9 7.66 22.407 22.407 0 0 1 2.27 6.46c.139.826.173 1.666.1 2.5a4.354 4.354 0 0 1-.08.52c-.017.16-.05.317-.1.47l-.12.42c0 .13-.1.25-.15.37a2.822 2.822 0 0 1-.3.58l-.13.22-.13.17-.22.3Z" fill="#F2C94C"/><path d="M286.62 85.49v-.6c0-.07 0-.16-.05-.25a3.926 3.926 0 0 0-.17-.63c0-.12-.08-.24-.13-.37l-.2-.39a2.943 2.943 0 0 0-.24-.41 3.688 3.688 0 0 0-.29-.44 9.943 9.943 0 0 0-1.74-1.78 22.753 22.753 0 0 0-6-3.28 50.34 50.34 0 0 0-8.8-2.42 78.964 78.964 0 0 0-10.93-1.27 88.785 88.785 0 0 0-12.63.28c-2.21.21-4.47.51-6.76.94a56.771 56.771 0 0 0-6.91 1.73 29.818 29.818 0 0 0-6.7 3 12.461 12.461 0 0 0-2.85 2.42 6.828 6.828 0 0 0-1 1.6 4.465 4.465 0 0 0 0 3.67 7.166 7.166 0 0 0 1 1.6 12.255 12.255 0 0 0 2.86 2.42 28.774 28.774 0 0 0 6.7 3 55.032 55.032 0 0 0 6.91 1.74c2.28.42 4.55.73 6.76.94 4.198.388 8.419.482 12.63.28A79.008 79.008 0 0 0 269 96.06a50.301 50.301 0 0 0 8.74-2.43 22.22 22.22 0 0 0 6-3.28 9.328 9.328 0 0 0 1.74-1.78c.107-.136.204-.28.29-.43.091-.13.171-.267.24-.41l.2-.39c0-.13.09-.26.13-.37.074-.205.131-.416.17-.63 0-.09 0-.18.05-.26v-.59.85a3.139 3.139 0 0 1-.16.64c0 .11-.08.24-.13.37l-.19.39c-.07.145-.15.286-.24.42-.1.14-.17.3-.29.44a9.996 9.996 0 0 1-1.74 1.8 22.13 22.13 0 0 1-6 3.31 49.485 49.485 0 0 1-8.75 2.45 77.48 77.48 0 0 1-10.95 1.29 90.38 90.38 0 0 1-12.64-.26c-2.22-.21-4.49-.52-6.78-1-2.346-.422-4.661-1-6.93-1.73a29.832 29.832 0 0 1-6.73-3 12.56 12.56 0 0 1-2.9-2.46 6.87 6.87 0 0 1-1-1.63 4.587 4.587 0 0 1 0-3.79 6.868 6.868 0 0 1 1-1.63 12.502 12.502 0 0 1 2.87-2.44 28.998 28.998 0 0 1 6.73-3 55.761 55.761 0 0 1 6.93-1.74c2.29-.42 4.56-.73 6.78-.94a90.32 90.32 0 0 1 12.64-.26c3.675.171 7.334.599 10.95 1.28a50.561 50.561 0 0 1 8.75 2.46 22.276 22.276 0 0 1 6 3.31 9.676 9.676 0 0 1 1.74 1.8c.12.14.19.3.29.44.088.132.168.269.24.41l.19.4c.05.13.09.25.13.37.077.207.131.421.16.64V85.14c.09.22.09.35.09.35Z" fill="#F2C94C"/><path d="m274.6 58.21-.33-.21-.18-.11-.23-.12a3.876 3.876 0 0 0-.6-.25l-.37-.12-.43-.08a2.406 2.406 0 0 0-.48-.07 4.177 4.177 0 0 0-.52 0 9.54 9.54 0 0 0-2.47.28 22.4 22.4 0 0 0-6.26 2.72 50.278 50.278 0 0 0-7.27 5.42 78.162 78.162 0 0 0-7.7 7.87 88.613 88.613 0 0 0-7.51 10.14 75.168 75.168 0 0 0-3.4 5.93A54.046 54.046 0 0 0 234 96.1a29.363 29.363 0 0 0-1.71 7.15 12.354 12.354 0 0 0 .17 3.74c.137.612.352 1.203.64 1.76a5.1 5.1 0 0 0 1.22 1.44 4.991 4.991 0 0 0 1.68.81 6.925 6.925 0 0 0 1.87.19c1.255-.07 2.493-.33 3.67-.77A29.647 29.647 0 0 0 248 107a54.62 54.62 0 0 0 5.6-4.4 76.38 76.38 0 0 0 4.89-4.77 89.867 89.867 0 0 0 8-9.81 77.998 77.998 0 0 0 5.7-9.41 50.237 50.237 0 0 0 3.44-8.4c.7-2.179 1.06-4.452 1.07-6.74a9.646 9.646 0 0 0-.34-2.46c0-.18-.11-.34-.16-.5a3.672 3.672 0 0 0-.18-.44l-.19-.39c-.07-.12-.15-.23-.21-.34a4.97 4.97 0 0 0-.4-.52l-.16-.19-.16-.15-.28-.26.29.25.16.14.17.2c.149.16.283.334.4.52l.22.33c.06.12.12.26.19.39.072.145.132.295.18.45.067.16.124.323.17.49.23.807.351 1.641.36 2.48a22.733 22.733 0 0 1-1.05 6.77 50.223 50.223 0 0 1-3.43 8.41 76.134 76.134 0 0 1-5.69 9.44 87.881 87.881 0 0 1-7.95 9.83 74.095 74.095 0 0 1-4.9 4.78 53.715 53.715 0 0 1-5.61 4.42 29.783 29.783 0 0 1-6.54 3.46 12.502 12.502 0 0 1-3.7.77 6.893 6.893 0 0 1-1.92-.19 5.207 5.207 0 0 1-1.74-.84 5.055 5.055 0 0 1-1.25-1.48 7.054 7.054 0 0 1-.67-1.81 12.65 12.65 0 0 1-.16-3.78 29.645 29.645 0 0 1 1.72-7.19 54.312 54.312 0 0 1 2.87-6.54c1.07-2.07 2.22-4.05 3.41-5.93a90.02 90.02 0 0 1 7.54-10.15 77.1 77.1 0 0 1 7.72-7.87 51.119 51.119 0 0 1 7.3-5.41 22.48 22.48 0 0 1 6.29-2.72 9.998 9.998 0 0 1 2.49-.27h.52c.161.012.322.035.48.07l.42.09.38.12c.207.07.408.156.6.26l.23.12.18.12.3.26ZM220.42 99.08a1.223 1.223 0 0 1 0 1.73 1.242 1.242 0 0 1-1.73 0 1.21 1.21 0 0 1-.265-1.333 1.209 1.209 0 0 1 .662-.662 1.22 1.22 0 0 1 1.333.265ZM289.41 61.19a1.228 1.228 0 0 1-2.085.924 1.232 1.232 0 0 1 .168-1.904 1.229 1.229 0 0 1 1.917.98ZM228.14 103.1a.31.31 0 1 1-.62 0 .31.31 0 0 1 .62 0ZM234.77 68.84a.312.312 0 0 1-.198.28.31.31 0 1 1 .198-.28ZM283.26 85.49a.31.31 0 1 1-.621 0 .31.31 0 0 1 .621 0ZM287.58 71a.31.31 0 1 1-.62 0 .31.31 0 0 1 .62 0Z" fill="#F2C94C"/><path d="M266.64 92.32h-3.84V71.41a8.932 8.932 0 0 0-8.93-8.93 8.928 8.928 0 0 0-8.93 8.93v20.91h-3.84V71.41a12.77 12.77 0 1 1 25.54 0v20.91Z" fill="#F2C94C"/><g opacity=".3"><path opacity=".3" d="M266.64 92.32h-3.84V71.41a8.932 8.932 0 0 0-8.93-8.93 8.928 8.928 0 0 0-8.93 8.93v20.91h-3.84V71.41a12.77 12.77 0 1 1 25.54 0v20.91Z" fill="#000"/></g><path d="M268.83 83.02h-29.92a2.25 2.25 0 0 0-2.25 2.25v17.58a2.25 2.25 0 0 0 2.25 2.25h29.92a2.25 2.25 0 0 0 2.25-2.25V85.27a2.25 2.25 0 0 0-2.25-2.25Z" fill="#F2C94C"/><g opacity=".3"><path opacity=".3" d="M256.75 91.18a2.876 2.876 0 0 0-1.589-2.584 2.88 2.88 0 1 0-2.081 5.344v4.3h1.57v-4.3a2.878 2.878 0 0 0 2.1-2.76Z" fill="#000"/></g><path d="M238.49 103c-.07 0-.14-3.69-.14-8.23 0-4.54.07-8.22.14-8.22s.15 3.68.15 8.22c0 4.54-.07 8.23-.15 8.23ZM251.62 94.87a.846.846 0 0 1-.34-.19 3.818 3.818 0 0 1-.74-.76 3.99 3.99 0 0 1-.698-3.337 4.003 4.003 0 0 1 2.128-2.663 3.57 3.57 0 0 1 1-.34h.39a8.576 8.576 0 0 0-1.29.54 3.997 3.997 0 0 0-2.001 4.23c.101.549.316 1.07.631 1.53.28.354.588.685.92.99Z" fill="#FAFAFA"/><path d="M304.97 124.02H199a9.32 9.32 0 0 0-9.32 9.32v1.14a9.32 9.32 0 0 0 9.32 9.32h105.97a9.32 9.32 0 0 0 9.32-9.32v-1.14a9.32 9.32 0 0 0-9.32-9.32ZM305.88 151.15H199.91a9.32 9.32 0 0 0-9.32 9.32v1.14a9.32 9.32 0 0 0 9.32 9.32h105.97a9.32 9.32 0 0 0 9.32-9.32v-1.14a9.32 9.32 0 0 0-9.32-9.32Z" fill="#F5F5F5"/><path d="M209.37 133.76v-2.87h1.19v2.83c0 1 .42 1.37 1.13 1.37s1.15-.4 1.15-1.37v-2.83H214v2.87a2.313 2.313 0 0 1-.621 1.738 2.332 2.332 0 0 1-1.694.734 2.328 2.328 0 0 1-2.315-2.472ZM214.71 135.65l.38-.82c.416.244.888.375 1.37.38.53 0 .72-.14.72-.36 0-.64-2.37 0-2.37-1.56 0-.74.67-1.27 1.82-1.27a3.2 3.2 0 0 1 1.51.34l-.38.82a2.264 2.264 0 0 0-1.13-.3c-.51 0-.73.16-.73.37 0 .67 2.37 0 2.37 1.57 0 .73-.68 1.25-1.85 1.25a3.416 3.416 0 0 1-1.71-.42ZM222.81 134.37h-3a1.05 1.05 0 0 0 1.13.79 1.34 1.34 0 0 0 1-.38l.61.65a2.299 2.299 0 0 1-3.87-1.39 2.003 2.003 0 0 1 2.1-2 1.988 1.988 0 0 1 1.447.568 1.994 1.994 0 0 1 .603 1.432c0 .11-.02.23-.02.33Zm-3-.67h1.93a.996.996 0 0 0-.965-.738 1.002 1.002 0 0 0-.965.738ZM226 132v1h-.26a.993.993 0 0 0-.741.324.996.996 0 0 0-.259.766V136h-1.14v-3.93h1.09v.52A1.573 1.573 0 0 1 226 132ZM230.73 133.76V136h-1.14v-2.07c0-.64-.29-.93-.8-.93s-.94.33-.94 1.06V136h-1.14v-3.93h1.09v.46a1.683 1.683 0 0 1 1.3-.52 1.537 1.537 0 0 1 1.574 1.073c.069.219.088.45.056.677ZM235.24 133.77V136h-1.07v-.49a1.294 1.294 0 0 1-1.2.55c-.92 0-1.47-.51-1.47-1.19 0-.68.49-1.18 1.69-1.18h.91c0-.49-.29-.77-.91-.77a1.903 1.903 0 0 0-1.13.36l-.41-.79a3.003 3.003 0 0 1 1.7-.48c1.19-.01 1.89.57 1.89 1.76Zm-1.14 1v-.4h-.78c-.54 0-.71.19-.71.46s.25.47.65.47a.833.833 0 0 0 .84-.53ZM242.91 133.76V136h-1.14v-2.07c0-.64-.28-.93-.74-.93-.46 0-.87.33-.87 1v2H239v-2.07c0-.64-.27-.93-.75-.93s-.86.33-.86 1v2h-1.14v-3.93h1.09v.45a1.601 1.601 0 0 1 1.23-.51 1.48 1.48 0 0 1 1.3.64 1.77 1.77 0 0 1 .635-.486c.247-.111.515-.163.785-.154a1.51 1.51 0 0 1 1.234.483 1.518 1.518 0 0 1 .386 1.267ZM247.81 134.37h-3a1 1 0 0 0 1.12.79 1.357 1.357 0 0 0 1-.38l.6.65a2.287 2.287 0 0 1-2.361.502 2.292 2.292 0 0 1-1.499-1.892 2 2 0 0 1 2.1-2 2 2 0 0 1 2 2c.06.11.05.23.04.33Zm-3-.67h1.94a.997.997 0 0 0-.97-.757.999.999 0 0 0-.97.757ZM255.35 134c0 1.31-.6 2.05-1.5 2.05a.995.995 0 0 1-.603-.152.994.994 0 0 1-.397-.478 1.377 1.377 0 0 1-1.25.63 1.849 1.849 0 0 1-1.219-3.104 1.849 1.849 0 0 1 1.219-.586 1.396 1.396 0 0 1 1.12.48v-.43h1v2.37c0 .35.15.47.35.47.2 0 .54-.39.54-1.24a2.48 2.48 0 0 0-.805-1.854 2.497 2.497 0 0 0-1.915-.646 2.65 2.65 0 1 0 0 5.3 3.28 3.28 0 0 0 1.44-.33l.23.68a4.005 4.005 0 0 1-1.67.35 3.352 3.352 0 0 1-2.369-5.719 3.352 3.352 0 0 1 2.369-.981 3.197 3.197 0 0 1 3.191 1.905c.178.405.269.843.269 1.285Zm-2.61.2a.905.905 0 0 0-.544-.93.898.898 0 0 0-.376-.07.89.89 0 0 0-.9 1 .907.907 0 0 0 .91.91.911.911 0 0 0 .91-.91ZM262.8 133.76V136h-1.14v-2.07c0-.64-.28-.93-.75-.93s-.86.33-.86 1v2h-1.15v-2.07c0-.64-.27-.93-.74-.93s-.86.33-.86 1v2h-1.14v-3.93h1.09v.45a1.605 1.605 0 0 1 1.23-.51 1.45 1.45 0 0 1 1.29.64 1.789 1.789 0 0 1 1.42-.64 1.527 1.527 0 0 1 1.227.487 1.522 1.522 0 0 1 .383 1.263ZM267.3 133.77V136h-1.06v-.49a1.305 1.305 0 0 1-1.2.55c-.92 0-1.47-.51-1.47-1.19 0-.68.49-1.18 1.69-1.18h.9c0-.49-.29-.77-.9-.77a1.995 1.995 0 0 0-1.14.36l-.4-.79a3.002 3.002 0 0 1 1.69-.48c1.2-.01 1.89.57 1.89 1.76Zm-1.14 1v-.4h-.78c-.53 0-.7.19-.7.46s.24.47.64.47a.83.83 0 0 0 .84-.53ZM268.2 130.89a.661.661 0 0 1 .215-.465.644.644 0 0 1 .485-.165.636.636 0 0 1 .488.151.634.634 0 0 1 .222.459.653.653 0 0 1-.71.66.65.65 0 0 1-.7-.64Zm.13 1.19h1.14V136h-1.14v-3.92ZM270.53 130.59h1.14V136h-1.14v-5.41ZM272.46 135.35a.713.713 0 0 1 .705-.626.71.71 0 1 1-.705.626ZM274.31 134a2.01 2.01 0 0 1 .651-1.486A2.01 2.01 0 0 1 276.5 132a1.825 1.825 0 0 1 1.76 1l-.88.48a1.002 1.002 0 0 0-.89-.54 1.09 1.09 0 0 0 0 2.17 1.002 1.002 0 0 0 .89-.54l.88.49a1.835 1.835 0 0 1-1.76 1 2.01 2.01 0 0 1-1.562-.534 2.005 2.005 0 0 1-.628-1.526ZM278.57 134a2.156 2.156 0 0 1 1.214-2.105 2.16 2.16 0 1 1 .956 4.105 2.01 2.01 0 0 1-1.526-.522 2.002 2.002 0 0 1-.644-1.478Zm3.17 0a1.004 1.004 0 0 0-.676-.857.998.998 0 0 0-.869 1.783 1.004 1.004 0 0 0 1.286-.16.998.998 0 0 0 .259-.766ZM290.3 133.76V136h-1.14v-2.07c0-.64-.29-.93-.75-.93s-.87.33-.87 1v2h-1.14v-2.07c0-.64-.27-.93-.74-.93s-.87.33-.87 1v2h-1.14v-3.93h1.09v.45A1.643 1.643 0 0 1 286 132a1.46 1.46 0 0 1 1.29.64 1.789 1.789 0 0 1 1.42-.64 1.513 1.513 0 0 1 1.217.498 1.516 1.516 0 0 1 .373 1.262ZM224.64 161.15l1.85 1-.83 1.39-1.87-1.1v2.05h-1.6v-2.07l-1.87 1.12-.82-1.39 1.86-1-1.86-1 .82-1.39 1.87 1.12v-2.08h1.6v2.08l1.87-1.12.83 1.39-1.85 1ZM232.35 161.15l1.85 1-.83 1.39-1.87-1.1v2.05h-1.59v-2.07l-1.86 1.12-.82-1.39 1.85-1-1.85-1 .82-1.39 1.86 1.12v-2.08h1.59v2.08l1.87-1.12.83 1.39-1.85 1ZM240.06 161.15l1.85 1-.84 1.39-1.86-1.1v2.05h-1.6v-2.07l-1.87 1.12-.81-1.39 1.85-1-1.85-1 .81-1.39 1.87 1.12v-2.08h1.6v2.08l1.86-1.12.84 1.39-1.85 1ZM247.76 161.15l1.85 1-.83 1.39-1.87-1.1v2.05h-1.6v-2.07l-1.87 1.12-.82-1.39 1.86-1-1.86-1 .82-1.39 1.87 1.12v-2.08H247v2.08l1.87-1.12.83 1.39-1.94 1ZM255.47 161.15l1.85 1-.83 1.39-1.87-1.1v2.05h-1.59v-2.07l-1.86 1.12-.82-1.39 1.85-1-1.85-1 .82-1.39 1.86 1.12v-2.08h1.59v2.08l1.87-1.12.83 1.39-1.85 1ZM263.18 161.15l1.85 1-.84 1.39-1.86-1.1v2.05h-1.6v-2.07l-1.87 1.12-.81-1.39 1.85-1-1.85-1 .81-1.39 1.87 1.12v-2.08h1.6v2.08l1.86-1.12.84 1.39-1.85 1ZM270.88 161.15l1.85 1-.83 1.39-1.87-1.1v2.05h-1.6v-2.07l-1.87 1.12-.82-1.39 1.86-1-1.86-1 .82-1.39 1.87 1.12v-2.08h1.6v2.08l1.87-1.12.83 1.39-1.85 1ZM278.59 161.15l1.85 1-.83 1.39-1.87-1.1v2.05h-1.59v-2.07l-1.86 1.12-.82-1.39 1.85-1-1.85-1 .82-1.39 1.86 1.12v-2.08h1.59v2.08l1.87-1.12.83 1.39-1.85 1ZM383.47 388.07c13.09-5.55 28.25-16.49 35-29.89a74.603 74.603 0 0 0-35 29.89M386.26 367.27c13.09-5.56 28.24-16.49 35-29.89a74.448 74.448 0 0 0-35 29.89ZM390 347c13.1-5.56 28.25-16.49 35-29.9a74.62 74.62 0 0 0-35 29.9M394.79 325.86c12.35-7.33 26.12-20.27 31.25-34.48a76.897 76.897 0 0 0-31.25 34.48ZM399.87 309.65c9-11.77 17.39-29.29 17.28-44.47a82.656 82.656 0 0 0-17.28 44.47ZM397.35 317.35c-1.82-15.91-8-35.93-18.52-47.86a97.232 97.232 0 0 0 18.52 47.86M393.12 334.76c-3.21-16.41-11.3-36.7-23.24-48.21a100.901 100.901 0 0 0 23.24 48.21ZM388.26 356c-3.21-16.41-11.26-36.71-23.26-48.22A100.999 100.999 0 0 0 388.26 356M384.36 382.06c-3.21-16.41-11.31-36.7-23.24-48.21a100.901 100.901 0 0 0 23.24 48.21" fill="#263238"/><path d="M400.48 306.53a.856.856 0 0 0-.11.24c-.06.2-.14.44-.24.74-.22.69-.53 1.63-.91 2.84-.79 2.46-1.85 6.06-3.1 10.51s-2.63 9.8-4.05 15.75c-1.42 5.95-2.83 12.54-4.14 19.48-1.31 6.94-2.36 13.59-3.22 19.66-.86 6.07-1.49 11.53-1.94 16.14-.45 4.61-.77 8.34-.93 10.92-.08 1.26-.14 2.26-.19 3v.77c-.011.09-.011.18 0 .27.025-.085.041-.172.05-.26 0-.21.05-.46.08-.77.07-.72.17-1.71.29-3 .22-2.58.59-6.3 1.09-10.9.5-4.6 1.19-10.06 2.05-16.12.86-6.06 2-12.69 3.25-19.63 1.25-6.94 2.72-13.5 4.09-19.46 1.37-5.96 2.74-11.3 4-15.76 1.26-4.46 2.21-8.07 2.94-10.55.35-1.22.62-2.18.82-2.87.08-.31.14-.55.2-.75a2.623 2.623 0 0 0-.03-.25Z" fill="#263238"/><path d="M377.09 396.74c5.55-11.63 9.59-28 6.87-40.73a72.216 72.216 0 0 0-6.87 40.73ZM367.86 381.69c5.55-11.63 9.59-28 6.86-40.74a72.17 72.17 0 0 0-6.86 40.74M359.58 366.38c5.55-11.63 9.59-28 6.86-40.74a72.17 72.17 0 0 0-6.86 40.74M351.42 349.87c4.12-12.31 6.2-29.08 2-41.36a72.749 72.749 0 0 0-2 41.36M346.11 336.35c-.41-13.09-4.26-29.49-12.39-39.16a71.003 71.003 0 0 0 12.39 39.16ZM348.56 342.84c-9.63-9.09-24.27-18.11-37.43-19.29a72.489 72.489 0 0 0 37.43 19.29M355.06 356.61c-10.8-8.55-26.83-16.58-40.69-16.61a75.431 75.431 0 0 0 40.69 16.61ZM363.17 373.22c-10.79-8.55-26.82-16.58-40.69-16.61a75.465 75.465 0 0 0 40.69 16.61ZM374.48 392.34c-10.79-8.55-26.83-16.58-40.69-16.61a75.431 75.431 0 0 0 40.69 16.61" fill="#455A64"/><path d="M344.85 334s0 .08.06.22l.22.62.9 2.35c.79 2 2 5 3.53 8.57 3.08 7.2 7.65 17 13.32 27.54 2.84 5.26 5.68 10.19 8.35 14.63 2.67 4.44 5.19 8.37 7.36 11.62s4 5.88 5.24 7.65c.62.86 1.11 1.55 1.48 2.05l.39.52c.04.065.091.122.15.17a1.179 1.179 0 0 0-.11-.2l-.35-.55c-.35-.51-.81-1.21-1.4-2.1-1.24-1.8-3-4.44-5.11-7.73-2.11-3.29-4.6-7.23-7.26-11.66s-5.47-9.38-8.31-14.63a396.243 396.243 0 0 1-13.43-27.44 454.67 454.67 0 0 1-3.67-8.51l-1-2.32c-.11-.24-.19-.44-.27-.6l-.09-.2Z" fill="#263238"/><path d="M350.65 398.14h55.16v10.64h-5.67l-4.77 30.32h-34.1l-4.91-30.32h-5.71v-10.64Z" fill="#F2C94C"/><path d="M350.65 408.55c0-.14 12.26-.25 27.38-.25s27.38.11 27.38.25-12.25.26-27.38.26c-15.13 0-27.38-.11-27.38-.26ZM34.68 439.11h-8.95l-3.32-40.3h10.54l1.73 40.3ZM112.27 439.11h8.96l3.32-40.3H114l-1.73 40.3Z" fill="#263238"/><path d="m130.7 403.91-115.24 2.71L12 332.19a12.778 12.778 0 0 1 12.72-13.39h98.19a12.79 12.79 0 0 1 12.75 13.67l-4.96 71.44Z" fill="#D11A30"/><path d="M136.61 331.93h-1.27l-3.63.05h-13.36c-11.28 0-26.86-.11-44.06.29-17.21.57-32.81.48-44.08.31-5.64-.09-10.21-.2-13.36-.3l-3.63-.12h-.94a1.143 1.143 0 0 1-.32 0c.106-.016.214-.016.32 0h4.57l13.36.13c11.28.07 26.86.11 44.06-.46 17.22-.4 32.8-.21 44.08-.14l13.36.12h4.58l.32.12ZM54 320a26.42 26.42 0 0 0-7.48 2.24A26.937 26.937 0 0 0 40.3 327a6.694 6.694 0 0 1 1.43-1.85 17.288 17.288 0 0 1 9.92-5.15 6.674 6.674 0 0 1 2.35 0Z" fill="#263238"/><path d="m101.39 184.64 14.08 25.73 20.64-11.54 10 3.31s-25.28 27.45-29.39 28.86c-4.11 1.41-11.89 1.65-16.34-3.91-4-5.07-15.83-31.68-15.83-31.68l16.84-10.77Z" fill="#FFBE9D"/><path d="M159.38 167.84a1.676 1.676 0 0 0-1.52-.6l-9.86 1.35a3.057 3.057 0 0 0-2.1 1.35l-20.37 31.32 1.56.88 10.91-.34 21.71-33.58-.33-.38Z" fill="#263238"/><path d="M152.43 171.91a.627.627 0 0 0 .83-.17.611.611 0 0 0 .06-.84.6.6 0 0 0-.82.17.598.598 0 0 0-.07.84Z" fill="#fff"/><path d="M159.69 168.22c-.623.174-1.258.301-1.9.38l-5.2.8-3.59.53a2.057 2.057 0 0 0-1.52.89l-1.16 1.8c-1.61 2.48-3.36 5.19-5.21 8-3.7 5.68-7.09 10.81-9.56 14.5l-3 4.36a10.314 10.314 0 0 1-1.16 1.55c.292-.58.627-1.139 1-1.67l2.8-4.47c2.38-3.75 5.71-8.91 9.42-14.6l5.24-8 1.19-1.8a2.507 2.507 0 0 1 1.87-1.08l3.61-.46 5.23-.62a12.976 12.976 0 0 1 1.94-.11Z" fill="#455A64"/><path d="M148.8 179.42s-.87-.16-1.35 2.24c-.48 2.4-2 9.25-2 9.25l-4.59-2.43-5.73.74s-1.25 1.16-.33 1.79c.92.63 4.54 1.27 4.54 1.27l2.67 3.84-7.67-3.69s-2.56.66-1.81 2.23c.75 1.57 5.92 6.45 5.92 6.45l-3.84-.3L130 198s-1.4.06-.88 1.26c.52 1.2 5.28 5.51 5.28 5.51l5.76 2.79s3.15-.24 3.45-1.17c.204-.731.331-1.482.38-2.24 0 0 1.67-.45 2-1.26a4.998 4.998 0 0 0 .11-2.09s2.62.46 3-1a16.64 16.64 0 0 0-.22-5.47c-.26-1.12 1.12-11.57 1-11.88-.12-.31.57-3.72-1.08-3.03Z" fill="#FFBE9D"/><path d="M143.83 206.44a3.076 3.076 0 0 1-1.5.47 10.13 10.13 0 0 1-7.27-1.73c-.8-.57-1.18-1-1.13-1.09.05-.09 1.93 1.43 4.73 2.07 2.8.64 5.14.1 5.17.28ZM142.46 204.38c-.09.13-1.11-.41-2.2-1.3-1.09-.89-1.81-1.79-1.7-1.91.11-.12 1 .58 2.08 1.45s1.92 1.62 1.82 1.76ZM145.5 199.4c-.09.14-1.11-.38-2.13-1.33-1.02-.95-1.62-1.91-1.5-2 .12-.09.91.67 1.9 1.57.99.9 1.82 1.63 1.73 1.76ZM148.68 195.4c-.15.07-.73-1-1.65-2.19-.92-1.19-1.8-2-1.69-2.16.11-.16 1.2.54 2.16 1.8a4.378 4.378 0 0 1 1.18 2.55Z" fill="#EB996E"/><path d="M152.58 380.86a2.008 2.008 0 0 0 0-.95 6.11 6.11 0 0 0-1-2.41 3.913 3.913 0 0 0-.57-.7 1.1 1.1 0 0 0-1.08-.24.76.76 0 0 0-.47.48c-.07.208-.07.432 0 .64.134.349.302.683.5 1 .37.63.68 1.25 1.15 2a1.384 1.384 0 0 0 1.28.58 2.762 2.762 0 0 0 1.23-.55 11.022 11.022 0 0 0 1.8-1.66c.26-.3.5-.62.72-.93.245-.318.425-.682.53-1.07a1.003 1.003 0 0 0-.54-1.16 1.235 1.235 0 0 0-1.15.26 7.284 7.284 0 0 0-1.2 1.37 8.988 8.988 0 0 0-1.19 2.3 2.184 2.184 0 0 0-.2.92 17.346 17.346 0 0 1 1.71-3 7.003 7.003 0 0 1 1.16-1.23.775.775 0 0 1 .68-.18.523.523 0 0 1 .22.6 2.742 2.742 0 0 1-.47.86 9.475 9.475 0 0 1-.69.87 10.308 10.308 0 0 1-1.71 1.57c-.29.232-.634.387-1 .45a.802.802 0 0 1-.77-.36c-.4-.57-.77-1.28-1.14-1.87a7.01 7.01 0 0 1-.48-.87c-.09-.27 0-.44.15-.52.43-.18.85.31 1.15.73a9.007 9.007 0 0 1 1.38 3.07Z" fill="#263238"/><path d="m128.01 381.7-12.2 26.44-19.7-9.09 12.63-32.73 19.27 15.38Z" fill="#FFBE9D"/><path d="M118.11 406.38 111 420s18.25 18.86 16.54 23.08l-42.9-20.57 11.76-27.29 21.71 11.16Z" fill="#455A64"/><path d="M98.61 411.76a1.941 1.941 0 0 0-2.17 1.41 1.87 1.87 0 0 0 1.39 2.17 2.062 2.062 0 0 0 2.29-1.52 1.937 1.937 0 0 0-1.7-2.09" fill="#E0E0E0"/><g opacity=".6"><path opacity=".6" d="m84.62 422.49 1.78-3.42 40.47 21s1.51 1.75.65 3l-42.9-20.58Z" fill="#fff"/></g><path d="M111.78 420.09c-.1.21-1.2-.2-2.55 0-1.35.2-2.33.8-2.48.62-.15-.18.74-1.24 2.38-1.42 1.64-.18 2.79.63 2.65.8ZM115.39 424.11c0 .22-1.13.15-2.26.69-1.13.54-1.8 1.38-2 1.28-.2-.1.23-1.36 1.66-2 1.43-.64 2.69-.17 2.6.03ZM115.36 430.72c-.21-.05 0-1.23 1.09-2.12 1.09-.89 2.29-.88 2.29-.66 0 .22-.89.54-1.78 1.28s-1.38 1.58-1.6 1.5ZM113.83 414.85c-.18.15-1-.6-2.23-1.08-1.23-.48-2.32-.56-2.34-.79-.02-.23 1.22-.56 2.65 0s2.09 1.76 1.92 1.87ZM122.13 402.85l32.17-80.49s-.73-13.74-3.26-18.08c-2.53-4.34-79.15-29.63-79.15-29.63s-19.52-4.7-32.53 0c-13.01 4.7-22.77 21-21 30 1.77 9 9.43 15.67 9.43 15.67L84.18 322l30.71 11.21-20.68 59.26 27.92 10.38Z" fill="#263238"/><path d="m150.74 347.85.73 29.11-21.69.53-3.12-34.94 24.08 5.3Z" fill="#FFBE9D"/><path d="m152.76 374.36-.4 15.35s24.7 8.87 25 13.41l-47.58.48-1.46-29.67 24.44.43Z" fill="#455A64"/><path d="M137.63 387.79a1.937 1.937 0 0 0-1.32 2.23 1.857 1.857 0 0 0 2.2 1.33 2 2 0 0 0 1.38-2.37 2.002 2.002 0 0 0-2.44-1.13" fill="#E0E0E0"/><g opacity=".6"><path opacity=".6" d="m129.81 403.6.1-3.85 45.58 1s2.12.9 1.9 2.39l-47.58.46Z" fill="#fff"/></g><path d="M153.13 389.46c0 .23-1.17.35-2.3 1.1-1.13.75-1.74 1.74-2 1.66-.26-.08.12-1.44 1.51-2.33 1.39-.89 2.84-.65 2.79-.43ZM158.14 391.47c.05.22-.95.63-1.73 1.62-.78.99-1 2-1.22 2-.22 0-.4-1.32.6-2.53 1-1.21 2.34-1.31 2.35-1.09ZM161 397.41c-.21 0-.54-1.1 0-2.38.54-1.28 1.67-1.8 1.77-1.6.1.2-.57.87-1 1.93-.43 1.06-.51 2.03-.77 2.05ZM152.65 383.85c-.09.22-1.16-.09-2.47 0-1.31.09-2.34.53-2.46.33-.12-.2.85-1 2.4-1.14 1.55-.14 2.64.63 2.53.81ZM138.08 267s13-1 14.43 13.06c1.43 14.06 2.87 79.87 2.87 79.87L125 362.47l-4.7-67.22-48.43-20.6s57.53-9.45 66.21-7.65Z" fill="#263238"/><path d="M84.53 248s7.88 22.11 6.38 24.57c-1.5 2.46-21.78 12.6-21.78 12.6L18.4 304.65s-5.21-8.29-5.21-21S30.84 248 30.84 248h53.69Z" fill="#263238"/><path d="m69.49 273.52.24.13.72.33 2.81 1.25 10.55 4.6 36.4 15.67-.16-.23c.46 6.64 1 13.81 1.47 21.23 1.24 17.34 2.37 33.34 3.28 46v.23h.23l22.12-1.94 6.09-.57 1.59-.17a3.17 3.17 0 0 0 .54-.08h-.55l-1.59.1-6.1.45-22.13 1.73.25.21c-.87-12.66-2-28.65-3.16-46-.52-7.42-1-14.59-1.5-21.23v-.17l-.15-.06-36.5-15.49-10.61-4.45-2.84-1.17-.74-.29-.26-.08ZM29.14 275.73c.49-.077.97-.208 1.43-.39l3.82-1.23a83.198 83.198 0 0 1 12.78-3.23c4.34-.708 8.77-.651 13.09.17 1.772.415 3.521.923 5.24 1.52a5.888 5.888 0 0 0-1.32-.67 23.841 23.841 0 0 0-3.84-1.24 35.099 35.099 0 0 0-13.25-.34 71.12 71.12 0 0 0-12.83 3.41c-1.6.57-2.88 1.06-3.77 1.4-.47.153-.922.354-1.35.6Z" fill="#455A64"/><path d="M36.31 264.08a37.37 37.37 0 0 1 4.44 0c1.37.1 3 .31 4.8.52 1.8.21 3.79.46 5.85.85 3.522.564 6.9 1.814 9.94 3.68a32.983 32.983 0 0 1 3.45 2.78 3.892 3.892 0 0 0-.74-.95 15.271 15.271 0 0 0-2.49-2.16 25.338 25.338 0 0 0-10.06-3.91c-2.08-.39-4.08-.62-5.89-.81-1.81-.19-3.45-.35-4.84-.4a17.81 17.81 0 0 0-3.28.15c-.403.027-.8.111-1.18.25Z" fill="#455A64"/><path d="M58.72 86.43c-5.83-1-11 1.26-15.89 4.55A30.1 30.1 0 0 0 31 123.11a23.08 23.08 0 0 0 11.4 14.17c7.59 3.86 17.3 2.52 24.09-2.62 6.79-5.14 10.68-13.63 11-22.14A28.159 28.159 0 0 0 73 95.79a21.39 21.39 0 0 0-14.31-9.36" fill="#263238"/><path d="M42.12 106.28c.85-2.23.52-4.72.86-7.09.75-5.21 4.94-9.39 9.8-11.42 4.52-1.89 10-1.48 15.48.28A20.71 20.71 0 0 1 78 94.39a16.35 16.35 0 0 1 3 14.7l-26.67-3.88c-2.49 2.06-5 4.16-8.08 5.31-.871.39-1.83.545-2.78.45a2.476 2.476 0 0 1-2.07-1.71c-.25-1.01.35-2.01.72-2.98Z" fill="#263238"/><path d="m68.83 95.41-23.28 4.93a4.347 4.347 0 0 0-4.06 4.26l.28 50.4a15.65 15.65 0 0 0 3.28 9.51l2.22 2.86c5.07 6.53 15.32 5.87 19.19-1.43a5.15 5.15 0 0 0 .54-1.34c.097-.375.17-.756.22-1.14l.45-4.91c.22-4.48.26-9 .26-9s9.52-1.21 12-13.48c1.17-6.07 1.25-16.19 1.07-24.44-.2-7.43-4.75-16.71-12.17-16.22Z" fill="#FFBE9D"/><path d="M77.44 121.08a1.58 1.58 0 0 1-1.59 1.54 1.519 1.519 0 0 1-1.58-1.49 1.589 1.589 0 0 1 1.59-1.54 1.519 1.519 0 0 1 1.58 1.49ZM78.59 116.78c-.2.2-1.37-.73-3.07-.8-1.7-.07-3 .75-3.16.53-.16-.22.12-.46.68-.84a4.347 4.347 0 0 1 2.55-.67 4.09 4.09 0 0 1 2.43.89c.51.42.68.8.57.89ZM62.16 120.7a1.58 1.58 0 0 1-1.59 1.54 1.536 1.536 0 0 1-1.438-.907 1.534 1.534 0 0 1-.132-.583 1.589 1.589 0 0 1 1.59-1.54 1.511 1.511 0 0 1 1.57 1.49ZM62.41 116.37c-.21.19-1.37-.74-3.08-.8-1.71-.06-3 .74-3.16.52-.16-.22.12-.46.69-.83a4.342 4.342 0 0 1 2.54-.68 4.22 4.22 0 0 1 2.44.89c.5.43.67.81.57.9ZM67.52 129.33c.91-.248 1.847-.379 2.79-.39.44 0 .85-.1.94-.39a2.3 2.3 0 0 0-.24-1.31 558.3 558.3 0 0 1-1.16-3.36c-1.61-4.79-2.75-8.72-2.56-8.78.19-.06 1.65 3.77 3.26 8.55l1.1 3.39a2.46 2.46 0 0 1 .16 1.71 1.096 1.096 0 0 1-.74.61 3.021 3.021 0 0 1-.74.08c-.937.082-1.882.045-2.81-.11Z" fill="#263238"/><path d="M67.92 149.55a31.498 31.498 0 0 1-16.38-5.06s3.83 8.72 16.24 8l.14-2.94ZM66.64 133.41a3.096 3.096 0 0 0-2.71-1.25 2.78 2.78 0 0 0-2 1 1.77 1.77 0 0 0-.22 2 2.055 2.055 0 0 0 2.21.66 6.339 6.339 0 0 0 2.23-1.22c.2-.129.373-.295.51-.49a.561.561 0 0 0 0-.63" fill="#EB996E"/><path d="M62.46 130.32c.28 0 .21 1.84 1.74 3.22 1.53 1.38 3.51 1.24 3.52 1.5.01.26-.46.34-1.29.33a4.591 4.591 0 0 1-2.94-1.15 3.999 3.999 0 0 1-1.34-2.69c-.04-.78.18-1.23.31-1.21ZM62.31 111.31c-.18.45-1.88.17-3.89.33-2.01.16-3.65.65-3.89.22-.12-.2.18-.63.85-1a6.583 6.583 0 0 1 2.92-.9 6.42 6.42 0 0 1 3 .48c.7.27 1.09.65 1.01.87ZM78.39 109.31c-.32.37-1.47-.07-2.89-.15-1.42-.08-2.61.16-2.87-.26-.12-.2.09-.58.62-.92a4.167 4.167 0 0 1 4.65.32c.48.42.63.82.49 1.01Z" fill="#263238"/><path d="M37.85 102.69c2.42-7.09 13-16.75 20.41-16.08L70.05 94a11.5 11.5 0 0 1-8 8.65c-2.13.6-4.67.73-6 2.52s-.62 4.53-1.85 6.42c-1.71 2.61-6.22 2.4-7.52 5.24-.56 1.24-.31 2.74-.9 4-.78 1.64-5 3.65-6.73 3.07-1.73-.58-1.67-3.53-2.2-5.09a8.13 8.13 0 0 1-.14-5.49c.88-3.51-.01-7.25 1.14-10.63Z" fill="#263238"/><path d="M44.19 125.43c0-.92-.95-3.13-1.85-3.31-2.41-.47-6.79-.45-7.07 5.71-.38 8.42 8.15 7.07 8.17 6.83.02-.24.63-6.05.75-9.23Z" fill="#FFBE9D"/><path d="M41 131.35s-.15.1-.41.2a1.416 1.416 0 0 1-1.09 0c-.88-.36-1.56-1.81-1.54-3.33.015-.722.19-1.433.51-2.08a1.7 1.7 0 0 1 1.17-1.14.749.749 0 0 1 .85.45c.1.24 0 .4.09.42.09.02.18-.13.13-.48a.92.92 0 0 0-.31-.55 1.096 1.096 0 0 0-.8-.25 2.083 2.083 0 0 0-1.6 1.27 5.001 5.001 0 0 0-.61 2.32c0 1.7.77 3.33 2 3.73a1.57 1.57 0 0 0 1.35-.16c.26-.19.31-.38.26-.4Z" fill="#EB996E"/><path d="M36.05 100.5c0-2.63-3.26-4.35-5.83-5a10.92 10.92 0 0 0-7.59 1.5c-1.35.74-2.71 1.79-3 3.3-.29 1.51 1.15 3.32 2.59 2.78a5.211 5.211 0 0 0-2.72 7.18 5.214 5.214 0 0 0 3.483 2.337 5.208 5.208 0 0 0 4.077-.987 11.171 11.171 0 0 1-4.38 6 12.514 12.514 0 0 0 11.638-4.685A12.52 12.52 0 0 0 36.05 100.5Z" fill="#263238"/><path d="M30.21 113.9a7.559 7.559 0 0 1-.32-2.53 18.61 18.61 0 0 1 1-6.08 18.319 18.319 0 0 1 2.91-5.42 7.52 7.52 0 0 1 1.77-1.82c.16.1-2.66 2.9-4.15 7.42a27.622 27.622 0 0 0-1.21 8.43Z" fill="#D11A30"/><path d="M67.6 91.45c.78 3.43 6 7.83 8.28 10.5 4.36 5.09 5.22 6.78 5.18 18.16 2.06-3.93 3.64-7.78 3.48-12.22a18.361 18.361 0 0 0-4.88-12.07 14.33 14.33 0 0 0-12.06-4.37ZM103.32 185.14S94.24 170 91.72 167a20.079 20.079 0 0 0-7.43-5.45 15.103 15.103 0 0 0-3.53-1.05l-13.06-2.94s0 8.91-9.35 9.46c-9.35.55-17.2-12.45-17.2-12.45s-15.07 2.33-18.68 4.19c-3.61 1.86-9.28 4.21-12.4 19.83l-2.19 15.29 26 2.4 2.49 38.63 12.89 9s35.75 9.3 38 9.91c2.25.61 3-57.52 3-57.52s9.26-5.96 13.06-11.16Z" fill="#263238"/><path d="M86.2 178.64c.21.353.382.729.51 1.12.29.72.67 1.8 1.09 3.14a61.63 61.63 0 0 1 2.31 10.74c.443 3.649.56 7.33.35 11-.08 1.41-.19 2.54-.31 3.32a5.839 5.839 0 0 1-.21 1.2 5.208 5.208 0 0 1 0-1.22c0-.78.1-1.92.14-3.31a75.094 75.094 0 0 0-.5-10.9A74.578 74.578 0 0 0 87.45 183c-.37-1.35-.7-2.43-.94-3.18a6 6 0 0 1-.31-1.18Z" fill="#455A64"/><path d="m85.09 241.93-48.95-10.66-2.26-35-21.77-2s.81 23.92 1.64 31c1.21 10.23 7.25 24.18 10.79 27 3.54 2.82 62.75 1.53 62.75 1.53l-2.2-11.87Z" fill="#FFBE9D"/><path d="M112.88 248.27a1.88 1.88 0 0 1-1.82 1.06 1.793 1.793 0 0 1-.48-.1c-1.08-.34-1-2.55-1-2.55l-5.18-.85s-6.75 4.35-9.15 7.24c-2.4 2.89-8.52.55-8.52.55l-2.13-11.06 9.55-8.64s-.58.52.07-1.1c.65-1.62 3.66-1 3.66-1 .47-.8 2.43-1.09 2.43-1.09l8.38 1a5.747 5.747 0 0 1 4.19 2.64l3.54 5.6s1.88 4 1.57 5a1.68 1.68 0 0 1-2 1.1s-.41 2.65-1.11 2.74a5.633 5.633 0 0 1-2.07-.49l.07-.05Z" fill="#FFBE9D"/><path d="M95.05 240.33c0 .08 1.13 0 2.92.06a25.035 25.035 0 0 1 10.36 2.78c1 .57 2.06 1 2.39 1.78a1.002 1.002 0 0 1-.09 1 1.428 1.428 0 0 1-.64.53 2.26 2.26 0 0 1-.73.11s.26.23.8.09c.323-.095.607-.291.81-.56a1.351 1.351 0 0 0 .2-1.31 2.683 2.683 0 0 0-1-1.18c-.46-.3-.94-.6-1.47-.89a22.54 22.54 0 0 0-3.59-1.58A21.851 21.851 0 0 0 98 240a9.597 9.597 0 0 0-2.95.33Z" fill="#EB996E"/><path d="M94.47 245.67c0 .15 3.42 0 7.6.26s7.56.76 7.59.6a8.402 8.402 0 0 0-2.18-.53 49.584 49.584 0 0 0-5.38-.61 48.153 48.153 0 0 0-5.4 0 8.072 8.072 0 0 0-2.23.28ZM112.83 248.05c.076-.29.113-.59.11-.89.051-.816.051-1.634 0-2.45a10.042 10.042 0 0 0-.23-1.7 5.2 5.2 0 0 0-.82-1.82 11.53 11.53 0 0 0-3.14-3.22 15.45 15.45 0 0 0-4-2 13.823 13.823 0 0 0-3.62-.55h-2.44a2.878 2.878 0 0 0-.9.1c1.1.15 2.21.24 3.32.27 1.188.083 2.362.301 3.5.65a16.223 16.223 0 0 1 3.84 2 11.588 11.588 0 0 1 3 3.05 6.427 6.427 0 0 1 1.09 3.28c.23 2 .18 3.29.29 3.28Z" fill="#EB996E"/><path d="M100.73 232.86c0 .08 1.26.11 3.26.34 2 .23 5 .44 6.77 3.1a28.113 28.113 0 0 1 4.22 6.57c.362 1.017.63 2.064.8 3.13a2.465 2.465 0 0 0 0-.89 8.617 8.617 0 0 0-.49-2.37 24.882 24.882 0 0 0-4.17-6.78 8.676 8.676 0 0 0-1.62-1.64 5.843 5.843 0 0 0-2-.93 17.92 17.92 0 0 0-3.55-.56 12.485 12.485 0 0 0-3.22.03Z" fill="#EB996E"/><path d="M97.1 251.28c.18-.108.348-.235.5-.38l1.4-1.12a57.36 57.36 0 0 1 5.51-3.79h-.12l5.18.88-.18-.22c-.016.426.017.852.1 1.27.063.468.269.904.59 1.25.191.169.427.277.68.31.241.05.489.05.73 0a2.11 2.11 0 0 0 1.29-.71c.088-.095.165-.199.23-.31v-.08l-.3.11.17.07c.22.09.44.17.67.24.232.073.47.13.71.17.125.027.252.044.38.05a.862.862 0 0 0 .48-.1c.234-.17.412-.407.51-.68.104-.23.191-.467.26-.71.139-.483.25-.974.33-1.47l-.3.21a2.002 2.002 0 0 0 1.93-.66 1.59 1.59 0 0 0 .36-1.05 5.233 5.233 0 0 0-.18-1 29.932 29.932 0 0 0-1.43-3.73l-1.89-3-1.2-1.9a10.273 10.273 0 0 0-1.31-1.83 5.586 5.586 0 0 0-1.88-1.25 7.51 7.51 0 0 0-2.14-.45l-7.89-.88h-.06c-.475.073-.94.193-1.39.36a2.448 2.448 0 0 0-1.2.84l.29-.09a2.932 2.932 0 0 0-2.69.15 3.419 3.419 0 0 0-1.24 2.1l.06-.11-6.58 5.92-1.77 1.64c-.219.18-.42.381-.6.6.238-.153.462-.327.67-.52l1.85-1.55 6.69-5.79V234a3.001 3.001 0 0 1 1.17-1.84 2.479 2.479 0 0 1 2.27-.1l.18.08.11-.17c.262-.306.61-.526 1-.63.418-.151.85-.261 1.29-.33h-.06l7.89.93a6.594 6.594 0 0 1 2 .42c.638.256 1.217.64 1.7 1.13a9.623 9.623 0 0 1 1.24 1.75c.4.62.8 1.26 1.2 1.89l1.89 3a27.544 27.544 0 0 1 1.41 3.65c.087.287.144.582.17.88.012.26-.078.515-.25.71a1.454 1.454 0 0 1-1.41.48h-.27v.25c-.077.472-.181.939-.31 1.4-.08.414-.266.8-.54 1.12a.394.394 0 0 1-.21 0 1.9 1.9 0 0 1-.32 0 5.146 5.146 0 0 1-.65-.15l-.64-.22-.15-.07-.31.11v.07a1.678 1.678 0 0 1-1.17.81 1.56 1.56 0 0 1-.57 0 .876.876 0 0 1-.48-.2 3.265 3.265 0 0 1-.56-2.17v-.19h-.17l-5.2-.81h-.12a50.788 50.788 0 0 0-5.44 3.95c-.6.507-1.05.907-1.35 1.2a4.183 4.183 0 0 0-.56.33Z" fill="#EB996E"/><path d="m176.39 216.1-64.47.52c-2.1 0-4.09 1-4.41 3.08l-7 47H67.25a1.939 1.939 0 0 0 0 3.87h106.08l7.25-49.57a4.26 4.26 0 0 0-.108-1.814 4.246 4.246 0 0 0-4.082-3.086Z" fill="#263238"/><path d="M176.39 216.1c.336-.014.673.02 1 .1a4.27 4.27 0 0 1 3.26 3.69c.024.89-.057 1.779-.24 2.65-.27 1.9-.58 4.09-.93 6.54-1.42 9.86-3.46 24.06-6 41.51v.17h-.17l-102.91.07h-2.75a2.797 2.797 0 0 1-1.47-.28 2.27 2.27 0 0 1-1-1.17 2.21 2.21 0 0 1 1-2.67 2.76 2.76 0 0 1 1.46-.28h32.82l-.25.22c2.53-16.84 4.9-32.54 7-46.62a3.69 3.69 0 0 1 1.2-2.46 4.68 4.68 0 0 1 2.46-1.08 20.901 20.901 0 0 1 2.6-.1H116l9.71-.07 17.25-.11 24.56-.12h8.84-2.27l-6.57.1-24.56.27-17.25.17-9.71.09h-2.53a20.948 20.948 0 0 0-2.53.09 4.375 4.375 0 0 0-2.25 1 3.18 3.18 0 0 0-1 2.2c-2.1 14.09-4.45 29.8-7 46.63v.21h-33a2.209 2.209 0 0 0-1.2.21 1.67 1.67 0 0 0 0 2.93 2.06 2.06 0 0 0 1.21.21h2.77l102.91.07-.2.17c2.59-17.45 4.69-31.64 6.15-41.49.37-2.45.7-4.64 1-6.54.185-.857.276-1.733.27-2.61a4.116 4.116 0 0 0-.75-2 4.248 4.248 0 0 0-2.38-1.65c-.73-.05-1.08-.02-1.08-.05Z" fill="#263238"/><path d="M141.42 246.78a4.04 4.04 0 1 0 0-8.08 4.04 4.04 0 0 0 0 8.08Z" fill="#fff"/><path d="M103.08 270.13c.09 0 2.14-11.95 4.58-26.72s4.35-26.77 4.26-26.79c-.09-.02-2.15 11.95-4.59 26.73-2.44 14.78-4.33 26.77-4.25 26.78Z" fill="#263238"/></g><defs><clipPath id="a"><path fill="#fff" d="M0 0h428.14v443.06H0z"/></clipPath></defs></svg>