<svg width="293" height="226" viewBox="0 0 293 226" fill="none" xmlns="http://www.w3.org/2000/svg"><path d="M317.729 80.883c37.35-37.35 37.35-97.906 0-135.255-37.35-37.35-97.906-37.35-135.256 0-37.349 37.35-37.349 97.905 0 135.255 37.35 37.35 97.906 37.35 135.256 0ZM102.22 144.732l7.35 4.24v-8.48l-7.35 4.24ZM102.22 136.242l7.35 4.25v-8.49l-7.35 4.24Z" fill="#F2C94C"/><path d="m102.22 127.762 7.35 4.24v-8.48l-7.35 4.24ZM102.22 119.282l7.35 4.24v-8.48l-7.35 4.24ZM109.569 140.492l7.34 4.24v-8.49l-7.34 4.25Z" fill="#F2C94C"/><path d="m109.569 132.002 7.34 4.24v-8.48l-7.34 4.24ZM109.569 123.522l7.34 4.24v-8.48l-7.34 4.24ZM116.909 144.732l7.35 4.24v-8.48l-7.35 4.24ZM116.909 136.242l7.35 4.25v-8.49l-7.35 4.24Z" fill="#F2C94C"/><path d="m116.909 127.762 7.35 4.24v-8.48l-7.35 4.24ZM116.909 119.282l7.35 4.24v-8.48l-7.35 4.24ZM124.26 140.492l7.35 4.24v-8.49l-7.35 4.25Z" fill="#F2C94C"/><path d="m124.26 132.002 7.35 4.24v-8.48l-7.35 4.24ZM124.26 123.522l7.35 4.24v-8.48l-7.35 4.24Z" fill="#F2C94C"/><path opacity=".51" d="M2 65.452a1 1 0 1 1-2 0 1 1 0 0 1 2 0ZM2 88.292a1 1 0 1 1-2 0 1 1 0 0 1 2 0ZM2 111.132a.997.997 0 0 1-.617.924 1.003 1.003 0 0 1-1.307-1.307 1 1 0 0 1 1.924.383Z" fill="#000"/><path d="M207.389 102.312h-52.93v-52.92h52.93v52.92Zm-44.78-8.14h36.63v-36.64h-36.63v36.64Z" stroke="#000" stroke-width=".25" stroke-miterlimit="10"/><path d="M208.789 185.672c7.52-3.24 10.68 4.09 18.19.85 7.51-3.24 4.35-10.57 11.86-13.82s10.67 4.09 18.19.85c7.52-3.24 4.34-10.57 11.86-13.82s10.67 4.09 18.19.85M62.25 89.242c7.51-3.24 10.67 4.08 18.18.84s4.35-10.57 11.86-13.81 10.67 4.08 18.19.84c7.52-3.24 4.35-10.57 11.86-13.81s10.67 4.08 18.19.84" stroke="#000" stroke-width=".17" stroke-miterlimit="10"/></svg>